<?xml version="1.0" standalone="no"?>
<!DOCTYPE svg PUBLIC "-//W3C//DTD SVG 20010904//EN"
 "http://www.w3.org/TR/2001/REC-SVG-20010904/DTD/svg10.dtd">
<svg version="1.0" xmlns="http://www.w3.org/2000/svg"
 width="260.000000pt" height="260.000000pt" viewBox="0 0 260.000000 260.000000"
 preserveAspectRatio="xMidYMid meet">
<metadata>
Created by potrace 1.14, written by Peter Selinger 2001-2017
</metadata>
<g transform="translate(0.000000,260.000000) scale(0.100000,-0.100000)"
fill="#000000" stroke="none">
<path d="M2245 1779 c-76 -22 -251 -102 -330 -151 -214 -134 -391 -311 -468
-467 -38 -77 -42 -91 -42 -160 0 -65 4 -81 25 -111 77 -110 208 -126 377 -45
125 59 198 115 209 162 10 38 -2 38 -54 0 -162 -119 -353 -183 -444 -148 -65
25 -79 113 -34 214 59 135 149 238 341 393 241 195 454 307 565 299 37 -3 50
-18 50 -57 0 -21 -10 -32 -53 -56 -166 -93 -327 -266 -327 -350 0 -36 16 -52
54 -52 98 0 276 177 356 353 18 41 37 68 50 72 28 9 25 25 -5 25 -19 0 -25 5
-25 21 0 11 -13 34 -29 50 -26 26 -36 29 -88 28 -32 0 -89 -9 -128 -20z m135
-204 c-74 -108 -192 -235 -241 -260 -82 -43 -33 54 90 175 71 71 169 145 179
136 2 -3 -10 -25 -28 -51z"/>
<path d="M1493 1768 c-69 -35 -193 -132 -344 -268 -9 -8 -51 -49 -93 -90 l-77
-75 74 111 c72 109 102 179 89 213 -32 89 -200 -12 -526 -318 l-39 -36 37 50
c113 153 180 266 188 315 1 8 -1 27 -5 43 -13 49 -90 34 -197 -39 -156 -106
-440 -392 -440 -443 0 -24 24 -8 83 56 213 229 371 367 472 409 80 33 51 -47
-70 -196 -29 -37 -60 -73 -67 -81 -8 -8 -36 -39 -64 -70 -48 -54 -165 -186
-194 -219 -8 -10 -40 -46 -71 -81 -94 -106 -150 -173 -160 -191 -9 -17 12 -48
33 -48 6 0 122 112 257 248 315 317 447 436 601 539 112 75 149 79 115 13 -28
-53 -290 -390 -339 -435 -6 -5 -56 -66 -110 -135 -55 -69 -105 -132 -112 -140
-25 -31 -26 -58 -3 -70 19 -11 26 -7 63 33 74 81 110 121 155 172 177 202 316
341 481 483 170 146 322 255 345 246 28 -11 -20 -75 -172 -231 -255 -261 -345
-361 -426 -474 -99 -139 -115 -231 -42 -239 55 -6 78 12 30 24 -15 4 -25 14
-25 24 0 25 62 114 151 217 70 81 134 152 153 171 21 21 216 229 295 314 76
82 110 186 70 211 -24 15 -72 10 -116 -13z"/>
</g>
</svg>
